<svg width="40" height="40" viewBox="0 0 40 40" fill="none" xmlns="http://www.w3.org/2000/svg">
<mask id="mask0" mask-type="alpha" maskUnits="userSpaceOnUse" x="7" y="7" width="33" height="33">
<path fill-rule="evenodd" clip-rule="evenodd" d="M7 7.69653H40V39.6899H7V7.69653Z" fill="white"/>
</mask>
<g mask="url(#mask0)">
<path opacity="0.6" fill-rule="evenodd" clip-rule="evenodd" d="M38.02 7.69653H26.14C25.0465 7.69653 24.16 8.59198 24.16 9.69653V39.0299C24.16 39.3979 24.4557 39.6965 24.82 39.6965H39.34C39.7044 39.6965 40 39.3979 40 39.0299V9.69653C40 8.59198 39.1135 7.69653 38.02 7.69653ZM37.36 35.0299H26.8C26.4357 35.0299 26.14 34.7312 26.14 34.3632C26.14 33.9952 26.4357 33.6965 26.8 33.6965H37.36C37.7244 33.6965 38.02 33.9952 38.02 34.3632C38.02 34.7312 37.7244 35.0299 37.36 35.0299ZM37.36 29.6965H26.8C26.4357 29.6965 26.14 29.3979 26.14 29.0299C26.14 28.6619 26.4357 28.3632 26.8 28.3632H37.36C37.7244 28.3632 38.02 28.6619 38.02 29.0299C38.02 29.3979 37.7244 29.6965 37.36 29.6965ZM37.36 24.3632H26.8C26.4357 24.3632 26.14 24.0645 26.14 23.6965C26.14 23.3285 26.4357 23.0299 26.8 23.0299H37.36C37.7244 23.0299 38.02 23.3285 38.02 23.6965C38.02 24.0645 37.7244 24.3632 37.36 24.3632ZM37.36 19.0299H26.8C26.4357 19.0299 26.14 18.7312 26.14 18.3632C26.14 17.9952 26.4357 17.6965 26.8 17.6965H37.36C37.7244 17.6965 38.02 17.9952 38.02 18.3632C38.02 18.7312 37.7244 19.0299 37.36 19.0299ZM37.36 13.6965H26.8C26.4357 13.6965 26.14 13.3979 26.14 13.0299C26.14 12.6619 26.4357 12.3632 26.8 12.3632H37.36C37.7244 12.3632 38.02 12.6619 38.02 13.0299C38.02 13.3979 37.7244 13.6965 37.36 13.6965Z" fill="#DEB876"/>
<path opacity="0.6" fill-rule="evenodd" clip-rule="evenodd" d="M20.86 13.6965H8.98C7.88649 13.6965 7 14.592 7 15.6965V39.0299C7 39.3979 7.29568 39.6965 7.66 39.6965H22.18C22.5443 39.6965 22.84 39.3979 22.84 39.0299V15.6965C22.84 14.592 21.9535 13.6965 20.86 13.6965ZM10.3 17.0299H13.6C13.9643 17.0299 14.26 17.3285 14.26 17.6965C14.26 18.0645 13.9643 18.3632 13.6 18.3632H10.3C9.93568 18.3632 9.64 18.0645 9.64 17.6965C9.64 17.3285 9.93568 17.0299 10.3 17.0299ZM10.3 20.3632H13.6C13.9643 20.3632 14.26 20.6619 14.26 21.0299C14.26 21.3979 13.9643 21.6965 13.6 21.6965H10.3C9.93568 21.6965 9.64 21.3979 9.64 21.0299C9.64 20.6619 9.93568 20.3632 10.3 20.3632ZM10.3 23.6965H13.6C13.9643 23.6965 14.26 23.9952 14.26 24.3632C14.26 24.7312 13.9643 25.0299 13.6 25.0299H10.3C9.93568 25.0299 9.64 24.7312 9.64 24.3632C9.64 23.9952 9.93568 23.6965 10.3 23.6965ZM10.3 28.3632C9.93568 28.3632 9.64 28.0645 9.64 27.6965C9.64 27.3285 9.93568 27.0299 10.3 27.0299H13.6C13.9643 27.0299 14.26 27.3285 14.26 27.6965C14.26 28.0645 13.9643 28.3632 13.6 28.3632H10.3ZM18.22 38.3632H11.62V31.0299C11.62 30.6619 11.9157 30.3632 12.28 30.3632H17.56C17.9243 30.3632 18.22 30.6619 18.22 31.0299V38.3632ZM19.54 28.3632H16.24C15.8757 28.3632 15.58 28.0645 15.58 27.6965C15.58 27.3285 15.8757 27.0299 16.24 27.0299H19.54C19.9043 27.0299 20.2 27.3285 20.2 27.6965C20.2 28.0645 19.9043 28.3632 19.54 28.3632ZM19.54 25.0299H16.24C15.8757 25.0299 15.58 24.7312 15.58 24.3632C15.58 23.9952 15.8757 23.6965 16.24 23.6965H19.54C19.9043 23.6965 20.2 23.9952 20.2 24.3632C20.2 24.7312 19.9043 25.0299 19.54 25.0299ZM19.54 21.6965H16.24C15.8757 21.6965 15.58 21.3979 15.58 21.0299C15.58 20.6619 15.8757 20.3632 16.24 20.3632H19.54C19.9043 20.3632 20.2 20.6619 20.2 21.0299C20.2 21.3979 19.9043 21.6965 19.54 21.6965ZM19.54 18.3632H16.24C15.8757 18.3632 15.58 18.0645 15.58 17.6965C15.58 17.3285 15.8757 17.0299 16.24 17.0299H19.54C19.9043 17.0299 20.2 17.3285 20.2 17.6965C20.2 18.0645 19.9043 18.3632 19.54 18.3632Z" fill="#DEB876"/>
</g>
<path fill-rule="evenodd" clip-rule="evenodd" d="M12 0.696533C5.37537 0.704466 0.00736842 6.48396 0 13.6164C0 23.6043 11.116 34.0884 11.5863 34.5302C11.8236 34.752 12.1764 34.752 12.4137 34.5302C12.884 34.0884 24 23.6043 24 13.6164C23.9926 6.48396 18.6246 0.704466 12 0.696533ZM11.7632 32.757C9.78679 30.794 1.26316 21.8491 1.26316 13.7038C1.26316 7.46039 5.96428 2.39891 11.7632 2.39891C17.562 2.39891 22.2632 7.46039 22.2632 13.7038C22.2632 21.8427 13.7395 30.794 11.7632 32.757Z" fill="#151A6A"/>
<path fill-rule="evenodd" clip-rule="evenodd" d="M12.5001 7.69653C10.2757 7.69653 8.27004 9.03655 7.41871 11.0919C6.56749 13.1467 7.0383 15.5127 8.61115 17.0854C10.1839 18.6582 12.5499 19.129 14.6046 18.2778C16.66 17.4265 18 15.4209 18 13.1964C17.9964 10.1605 15.5361 7.70009 12.5001 7.69653ZM12.5 17.5965C10.7202 17.5965 9.11594 16.5246 8.43517 14.8804C7.75391 13.2362 8.13059 11.3437 9.38862 10.0852C10.6471 8.82713 12.5396 8.45044 14.1839 9.1317C15.8281 9.81248 16.9 11.4168 16.9 13.1966C16.8976 15.6257 14.9292 17.5941 12.5 17.5965Z" fill="#151A6A"/>
</svg>
