<svg xmlns="http://www.w3.org/2000/svg" version="1.1" xmlns:xlink="http://www.w3.org/1999/xlink" xmlns:svgjs="http://svgjs.com/svgjs" width="1440" height="560" preserveAspectRatio="none" viewBox="0 0 1440 560"><g mask="url(&quot;#SvgjsMask1012&quot;)" fill="none"><rect width="1440" height="560" x="0" y="0" fill="rgba(255, 255, 255, 1)"></rect><path d="M -17.475110670820015,424 C 54.52,387.2 198.52,235.6 342.52488932918,240 C 486.52,244.4 558.52,466 702.52488932918,446 C 846.52,426 918.52,150 1062.52488932918,140 C 1206.52,130 1278.52,399.2 1422.52488932918,396 C 1566.52,392.8 1779.03,118.8 1782.52488932918,124 C 1786.02,129.2 1508.5,362.4 1440,422" stroke="rgba(15, 107, 198, 0.58)" stroke-width="2"></path><path d="M -66.68328389931861,188 C 5.32,237 149.32,436 293.3167161006814,433 C 437.32,430 509.32,179 653.3167161006813,173 C 797.32,167 869.32,399.6 1013.3167161006813,403 C 1157.32,406.4 1229.32,190.4 1373.3167161006813,190 C 1517.32,189.6 1719.98,423.6 1733.3167161006813,401 C 1746.65,378.4 1498.66,141.8 1440,77" stroke="rgba(15, 107, 198, 0.58)" stroke-width="2"></path><path d="M -28.02113999803555,267 C 43.98,310.8 187.98,507.6 331.97886000196445,486 C 475.98,464.4 547.98,178.2 691.9788600019644,159 C 835.98,139.8 907.98,391.6 1051.9788600019644,390 C 1195.98,388.4 1267.98,168 1411.9788600019644,151 C 1555.98,134 1766.37,281.6 1771.9788600019644,305 C 1777.58,328.4 1506.4,275.4 1440,268" stroke="rgba(15, 107, 198, 0.58)" stroke-width="2"></path><path d="M -349.4790135441763,134 C -277.48,188 -133.48,375.2 10.52098645582368,404 C 154.52,432.8 226.52,293 370.5209864558237,278 C 514.52,263 586.52,359.2 730.5209864558237,329 C 874.52,298.8 946.52,127.6 1090.5209864558237,127 C 1234.52,126.4 1380.63,328.2 1450.5209864558237,326 C 1520.42,323.8 1442.1,158 1440,116" stroke="rgba(15, 107, 198, 0.58)" stroke-width="2"></path></g><defs><mask id="SvgjsMask1012"><rect width="1440" height="560" fill="#ffffff"></rect></mask></defs></svg>