<svg xmlns="http://www.w3.org/2000/svg" version="1.1" xmlns:xlink="http://www.w3.org/1999/xlink" xmlns:svgjs="http://svgjs.com/svgjs" width="1440" height="560" preserveAspectRatio="none" viewBox="0 0 1440 560"><g mask="url(&quot;#SvgjsMask1033&quot;)" fill="none"><rect width="1440" height="560" x="0" y="0" fill="rgba(217, 219, 221, 1)"></rect><path d="M -294.5061532929265,94 C -236.91,154.8 -121.71,401.8 -6.506153292926513,398 C 108.69,394.2 166.29,62.2 281.4938467070735,75 C 396.69,87.8 454.29,432.2 569.4938467070735,462 C 684.69,491.8 742.29,256.2 857.4938467070735,224 C 972.69,191.8 1030.29,339 1145.4938467070735,301 C 1260.69,263 1374.59,33 1433.4938467070735,34 C 1492.4,35 1438.7,251.6 1440,306" stroke="rgba(15, 107, 198, 0.58)" stroke-width="2"></path><path d="M -244.52835073359708,523 C -186.93,454.8 -71.73,184.4 43.47164926640292,182 C 158.67,179.6 216.27,524.8 331.4716492664029,511 C 446.67,497.2 504.27,117.6 619.4716492664029,113 C 734.67,108.4 792.27,462.6 907.4716492664029,488 C 1022.67,513.4 1080.27,249.6 1195.471649266403,240 C 1310.67,230.4 1434.57,450.8 1483.471649266403,440 C 1532.38,429.2 1448.69,236.8 1440,186" stroke="rgba(15, 107, 198, 0.58)" stroke-width="2"></path><path d="M -71.55231873639562,135 C -13.95,169.4 101.25,321.8 216.44768126360438,307 C 331.65,292.2 389.25,30.4 504.4476812636044,61 C 619.65,91.6 677.25,421.6 792.4476812636044,460 C 907.65,498.4 965.25,265.6 1080.4476812636044,253 C 1195.65,240.4 1253.25,424.8 1368.4476812636044,397 C 1483.65,369.2 1642.14,135.2 1656.4476812636044,114 C 1670.76,92.8 1483.29,255.6 1440,291" stroke="rgba(15, 107, 198, 0.58)" stroke-width="2"></path><path d="M -337.53219434517814,343 C -279.93,296.6 -164.73,89.8 -49.53219434517811,111 C 65.67,132.2 123.27,428.4 238.4678056548219,449 C 353.67,469.6 411.27,223.4 526.4678056548219,214 C 641.67,204.6 699.27,397.8 814.4678056548219,402 C 929.67,406.2 987.27,212.8 1102.4678056548219,235 C 1217.67,257.2 1322.96,515.2 1390.4678056548219,513 C 1457.97,510.8 1430.09,281.8 1440,224" stroke="rgba(15, 107, 198, 0.58)" stroke-width="2"></path><path d="M -524.1373594875704,187 C -466.54,208.2 -351.34,298.6 -236.13735948757045,293 C -120.94,287.4 -63.34,129.8 51.86264051242955,159 C 167.06,188.2 224.66,441.2 339.86264051242955,439 C 455.06,436.8 512.66,166 627.8626405124296,148 C 743.06,130 800.66,365 915.8626405124296,349 C 1031.06,333 1099.04,81.4 1203.8626405124296,68 C 1308.69,54.6 1392.77,239.2 1440,282" stroke="rgba(15, 107, 198, 0.58)" stroke-width="2"></path><path d="M -367.81829697213556,105 C -310.22,146.8 -195.02,299.4 -79.81829697213556,314 C 35.38,328.6 92.98,161.4 208.18170302786444,178 C 323.38,194.6 380.98,408.2 496.18170302786444,397 C 611.38,385.8 668.98,124 784.1817030278644,122 C 899.38,120 956.98,405.4 1072.1817030278644,387 C 1187.38,368.6 1286.62,32.2 1360.1817030278644,30 C 1433.75,27.8 1424.04,306.8 1440,376" stroke="rgba(15, 107, 198, 0.58)" stroke-width="2"></path><path d="M -134.39105105441695,432 C -76.79,398.6 38.41,252.8 153.60894894558305,265 C 268.81,277.2 326.41,495.4 441.60894894558305,493 C 556.81,490.6 614.41,266.2 729.608948945583,253 C 844.81,239.8 902.41,439 1017.608948945583,427 C 1132.81,415 1190.41,195.4 1305.608948945583,193 C 1420.81,190.6 1566.73,402.8 1593.608948945583,415 C 1620.49,427.2 1470.72,286.2 1440,254" stroke="rgba(15, 107, 198, 0.58)" stroke-width="2"></path><path d="M -420.5506306339265,418 C -362.95,368.6 -247.75,177.4 -132.5506306339265,171 C -17.35,164.6 40.25,403 155.4493693660735,386 C 270.65,369 328.25,72.6 443.4493693660735,86 C 558.65,99.4 616.25,433.6 731.4493693660735,453 C 846.65,472.4 904.25,202.6 1019.4493693660735,183 C 1134.65,163.4 1223.34,342.6 1307.4493693660736,355 C 1391.56,367.4 1413.49,267 1440,245" stroke="rgba(15, 107, 198, 0.58)" stroke-width="2"></path></g><defs><mask id="SvgjsMask1033"><rect width="1440" height="560" fill="#ffffff"></rect></mask></defs></svg>