<svg width="227" height="120" viewBox="0 0 227 120" fill="none" xmlns="http://www.w3.org/2000/svg">
<path d="M76.9478 45.3012H106.506C103.775 18.6345 87.0683 0 55.743 0C19.4378 0 0 25.2209 0 60.4016C0 94.6185 18.4739 120 54.9398 120C86.5863 120 103.936 100.723 106.506 74.3775H76.9478C75.0201 87.2289 69.8795 96.3855 54.4578 96.3855C35.3414 96.3855 29.5582 81.6064 29.5582 59.9197C29.5582 38.3936 35.3414 23.6145 54.4578 23.6145C69.7189 23.6145 74.8594 32.7711 76.9478 45.3012Z" fill="#001B80"/>
<path d="M110.901 35.1807L135.961 75.502L107.688 117.43H136.604L151.383 92.0482H151.704L166.483 117.43H195.399L167.126 75.502L192.186 35.1807H164.877L151.704 58.9558H151.383L138.21 35.1807H110.901Z" fill="#001B80"/>
<path d="M201.809 92.6373V117.055H226.227V92.6373H201.809Z" fill="#0083FF"/>
</svg>
